<svg xmlns="http://www.w3.org/2000/svg" version="1.1" xmlns:xlink="http://www.w3.org/1999/xlink" width="512" height="512" x="0" y="0" viewBox="0 0 60 60" style="enable-background:new 0 0 512 512" xml:space="preserve"><g><path fill="#a2c6cc" d="M36 51v1H20v-1l2-6v-1h12v1z" opacity="1" data-original="#a2c6cc"></path><path fill="#c4e1e8" d="M46.44 38 41 45H4a3 3 0 0 1-3-3v-4l1-1h44z" opacity="1" data-original="#c4e1e8"></path><path fill="#2a2a49" d="M55 4v23l-8.56 11H1V4a3 3 0 0 1 3-3h48a3 3 0 0 1 3 3z" opacity="1" data-original="#2a2a49"></path><path fill="#c4e1e8" d="M39 51H17a3 3 0 0 0-3 3v1a1 1 0 0 0 1 1h26a1 1 0 0 0 1-1v-1a3 3 0 0 0-3-3z" opacity="1" data-original="#c4e1e8"></path><rect width="18" height="32" x="41" y="27" fill="#2a2a49" rx="3" opacity="1" data-original="#2a2a49"></rect><path fill="#daeeef" d="M54 27v2a2 2 0 0 1-2 2h-4a2 2 0 0 1-2-2v-2" opacity="1" data-original="#daeeef"></path><g fill="#25e572"><path d="M22 15a.994.994 0 0 1-.6-.2l-4-3a1 1 0 0 1 0-1.6l4-3a1 1 0 1 1 1.2 1.6L19.667 11l2.933 2.2A1 1 0 0 1 22 15zM34 15a1 1 0 0 1-.6-1.8l2.933-2.2L33.4 8.8a1 1 0 1 1 1.2-1.6l4 3a1 1 0 0 1 0 1.6l-4 3a.994.994 0 0 1-.6.2zM27 16a.968.968 0 0 1-.243-.03 1 1 0 0 1-.728-1.213l2-8a1 1 0 0 1 1.94.486l-2 8A1 1 0 0 1 27 16z" fill="#25e572" opacity="1" data-original="#25e572"></path></g><path fill="#ff4d4d" d="M7 22H6a1 1 0 0 1 0-2h1a1 1 0 0 1 0 2z" opacity="1" data-original="#ff4d4d"></path><path fill="#f7bb26" d="M35 22H11a1 1 0 0 1 0-2h24a1 1 0 0 1 0 2z" opacity="1" data-original="#f7bb26"></path><path fill="#ff4d4d" d="M7 34H6a1 1 0 0 1 0-2h1a1 1 0 0 1 0 2z" opacity="1" data-original="#ff4d4d"></path><path fill="#f7bb26" d="M35 34H11a1 1 0 0 1 0-2h24a1 1 0 0 1 0 2z" opacity="1" data-original="#f7bb26"></path><path fill="#ff4d4d" d="M9 26H8a1 1 0 0 1 0-2h1a1 1 0 0 1 0 2z" opacity="1" data-original="#ff4d4d"></path><path fill="#ffffff" d="M31 26h-9a1 1 0 0 1 0-2h9a1 1 0 0 1 0 2z" opacity="1" data-original="#ffffff"></path><path fill="#2074ef" d="M18 26h-5a1 1 0 0 1 0-2h5a1 1 0 0 1 0 2z" opacity="1" data-original="#2074ef"></path><path fill="#ff4d4d" d="M9 30H8a1 1 0 0 1 0-2h1a1 1 0 0 1 0 2z" opacity="1" data-original="#ff4d4d"></path><path fill="#ffffff" d="M31 30h-9a1 1 0 0 1 0-2h9a1 1 0 0 1 0 2z" opacity="1" data-original="#ffffff"></path><path fill="#2074ef" d="M18 30h-5a1 1 0 0 1 0-2h5a1 1 0 0 1 0 2z" opacity="1" data-original="#2074ef"></path><path fill="#ffffff" d="M48 22h-9a1 1 0 0 1 0-2h9a1 1 0 0 1 0 2z" opacity="1" data-original="#ffffff"></path><path fill="#ff4d4d" d="M37 26h-2a1 1 0 0 1 0-2h2a1 1 0 0 1 0 2zM37 30h-2a1 1 0 0 1 0-2h2a1 1 0 0 1 0 2z" opacity="1" data-original="#ff4d4d"></path><path fill="#ffffff" d="M39 34.012a1 1 0 0 1-.006-2l2-.012H41a1 1 0 0 1 .006 2l-2 .012z" opacity="1" data-original="#ffffff"></path><path fill="#17172b" d="M53 56h-6a1 1 0 0 1 0-2h6a1 1 0 0 1 0 2z" opacity="1" data-original="#17172b"></path><path fill="#daeeef" d="M56 60H44a4 4 0 0 1-4-4V30a4 4 0 0 1 4-4h12a4 4 0 0 1 4 4v26a4 4 0 0 1-4 4zM44 28a2 2 0 0 0-2 2v26a2 2 0 0 0 2 2h12a2 2 0 0 0 2-2V30a2 2 0 0 0-2-2z" opacity="1" data-original="#daeeef"></path></g></svg>